<svg width="200" height="200" viewBox="0 0 200 200" fill="none" xmlns="http://www.w3.org/2000/svg">
  <rect width="200" height="200" fill="#F5F5F5"/>
  <rect x="40" y="40" width="120" height="120" rx="8" fill="#E0E0E0"/>
  <path d="M100 70C88.954 70 80 78.954 80 90C80 101.046 88.954 110 100 110C111.046 110 120 101.046 120 90C120 78.954 111.046 70 100 70ZM100 105C91.716 105 85 98.284 85 90C85 81.716 91.716 75 100 75C108.284 75 115 81.716 115 90C115 98.284 108.284 105 100 105Z" fill="#9E9E9E"/>
  <path d="M70 130H130V140H70V130Z" fill="#9E9E9E"/>
  <path d="M80 145H120V150H80V145Z" fill="#9E9E9E"/>
</svg>